PathFileType	4	(X/Y/Z)	54_1_13_p1_0-346.trc
DataRate	CameraRate	NumFrames	NumMarkers	Units	OrigDataRate	OrigDataStartFrame	OrigNumFrames
59.0	59.0	5	27	m	59.0	130	347
Frame#	Time	RHip			RKnee			RAnkle			RBigToe			RSmallToe			RHeel			LHip			LKnee			LAnkle			LBigToe			LSmallToe			LHeel			Neck			Head			Nose			RShoulder			RElbow			RWrist			RThumb			RIndex			RPinky			LShoulder			LElbow			LWrist			LThumb			LIndex			LPinky			
		X1	Y1	Z1	X2	Y2	Z2	X3	Y3	Z3	X4	Y4	Z4	X5	Y5	Z5	X6	Y6	Z6	X7	Y7	Z7	X8	Y8	Z8	X9	Y9	Z9	X10	Y10	Z10	X11	Y11	Z11	X12	Y12	Z12	X13	Y13	Z13	X14	Y14	Z14	X15	Y15	Z15	X16	Y16	Z16	X17	Y17	Z17	X18	Y18	Z18	X19	Y19	Z19	X20	Y20	Z20	X21	Y21	Z21	X22	Y22	Z22	X23	Y23	Z23	X24	Y24	Z24	X25	Y25	Z25	X26	Y26	Z26	X27	Y27	Z27	
130	2.2033898305084745	0.2907591050781767	0.5510377524377029	0.988003905275368	0.28409506997181644	0.5467651687696167	1.4553643186529421	0.2607267703355988	0.5459282744553157	1.9191927710259393	0.22180323316715847	0.37110453854343295	1.9508235878998235	0.2828240690461748	0.38795394167859754	1.9561833792451293	0.23432516488143726	0.6177958786201256	1.990114046008236	0.0628306172365136	0.560680321088535	0.9679911357893993	0.07101018409235095	0.5778561589152347	1.4638252009523733	0.05909534979372504	0.5582391856845632	1.9007035968605464	0.06261332895793424	0.3832665810156563	1.9495039331538166	0.010171540452990303	0.43968070708184387	1.9729393053053619	0.0657002466475809	0.5858792309138382	1.944720421835469	0.19149000442175101	0.5055196312076747	0.43422936200160905	0.17802329382454257	0.4048668851904227	0.17538217286918076	0.17608626469735844	0.372705676227274	0.3282415453084662	0.33351414335675666	0.4959967318818162	0.48664626947801254	0.35966896796360887	0.3785682524962955	0.747190282944521	0.21936794803408746	0.29938568162756485	0.5807353809765303	0.15242460611482445	0.2599466215692212	0.46906257225987374	0.15167431308804755	0.23185502511043982	0.4586492562193973	0.15859410050110453	0.21306085105739336	0.5007984220953448	0.03199543534368827	0.5465870831731946	0.5067449772407376	-0.039046494155834596	0.5820135194521644	0.7614775376762845	0.00955183332693999	0.4207868341802557	0.9427151413917042	0.08080763940877696	0.35091981075394474	1.0152832507643392	0.0698272614946575	0.34871330138959883	1.0523948038448294	0.039253064033983216	0.34522240263635595	1.077551087319954
131	2.2203389830508473	0.29078306273598886	0.55087765163786	0.987886293410691	0.2839142952191442	0.5477829974057707	1.4517972348824468	0.26157654697919075	0.5471633627425776	1.9247789998205775	0.22174490443973358	0.3708128878248528	1.9506255913294266	0.28277558038013895	0.38779972285296976	1.9561225435893341	0.2341943375442437	0.6174386908447056	1.9899063515912243	0.06293830731916349	0.5607073841871383	0.9680184428568028	0.07530051513304138	0.5649250622946921	1.4531928917879227	0.059043408244054685	0.5583035366141827	1.900816445355347	0.06254367069784655	0.38315328832666645	1.9495282054640524	0.01010063873915265	0.4395398350690996	1.9729059280199472	0.06574404843043537	0.5862064327838168	1.944945872390788	0.19148882564256875	0.5056320476307246	0.4342064906910334	0.1780386628424525	0.40456627333484807	0.17805722101935914	0.17609169576693284	0.37288374976924843	0.32825581691682176	0.3335300947083173	0.49592596233848674	0.4868239874813775	0.3637928543320292	0.388171415523729	0.7496769898930018	0.21939679039133977	0.2996492820984806	0.5809144330111105	0.15200596804125804	0.26023914147565685	0.4765091266368778	0.15127950855595215	0.23248962871491222	0.4659278191905948	0.15402317281732836	0.22129320508698866	0.5079382335909826	0.03216052855023984	0.5472539922504263	0.5101933047203304	-0.039020348107134804	0.5823839047869522	0.7615444830119493	0.012537871748941233	0.43166470776326593	0.9461646857033393	0.08077824183125777	0.35097532072643833	1.0152494174782272	0.06985554057225948	0.34864944910204615	1.0524219418012695	0.03932384805437595	0.34534964911424093	1.0776025239967233
132	2.23728813559322	0.291735344976832	0.5533517183504744	0.9851939134583447	0.28492480352331623	0.5476398195100133	1.460247325680456	0.25717842287488213	0.5349144229513897	1.916867751566668	0.22250342092910622	0.37191927900620125	1.9553413314801977	0.2801470806736139	0.40432863041256173	1.9718522003204686	0.23334164196927085	0.6162440974560356	1.9892512874090151	0.06389158104720348	0.5620189241976975	0.9692186433231423	0.0710986871162383	0.5777593793925534	1.4633923904106365	0.0588689390975819	0.5579728970569862	1.900726429970285	0.06257413763587363	0.3829279975636079	1.949260434639212	0.010199850442423613	0.4394241355664388	1.9727880783312044	0.06525054891626093	0.5852649613415043	1.9450935909145595	0.19174674530037192	0.5059970615946391	0.43397801111912393	0.17796473752606612	0.40495006874531914	0.17529571532264338	0.17612305964027508	0.3727416110258264	0.3282016968116226	0.3331816553165537	0.4952915334610677	0.48319948292837395	0.3677418485354715	0.38979837345773904	0.7501791625094006	0.2190848944710723	0.2992235528366612	0.5839610871829488	0.14849547151491108	0.2716065495569763	0.48504579431918304	0.14928530732931525	0.22596209953345894	0.4737196225019482	0.1533329556818063	0.2217679826686129	0.515555710068893	0.03200602883414872	0.5479792776650295	0.5066714223290261	-0.038843659724188837	0.5808944921607597	0.7649075801328187	0.009507904825520407	0.42075254652328464	0.9427024603787793	0.08083534544619575	0.3509956159372931	1.0150882141024493	0.06975905447196935	0.34759975663834025	1.0483870088881646	0.03474804617941578	0.3552511796175656	1.0817072544014557
133	2.2542372881355934	0.2918471725753417	0.5535657361081794	0.9853257778648649	0.28553093501869975	0.548807138391803	1.452024270607224	0.25715440674216256	0.5350770621917443	1.9169961842721082	0.2225461654206873	0.3718847612043597	1.955477505403925	0.28009024621723294	0.40418356152964907	1.9719358239168991	0.23384776341142582	0.6152239087824256	1.9932883855682022	0.06758902365627364	0.5488806180976983	0.9567074805961822	0.07113146665214003	0.5776796266326675	1.4630859740387663	0.05896870638747455	0.5581083556492448	1.9007107878396996	0.0626071289920984	0.38285578766071166	1.949177206331693	0.010240700631754899	0.4393431295705087	1.9726705116060907	0.06534329452293187	0.5856346202426892	1.9451557150372962	0.19175965624787908	0.50659055477475	0.4307950113053845	0.17793501565919984	0.40499763125651933	0.1752391143277375	0.1761043749393439	0.37279689595373144	0.32819747766792856	0.3332028090014157	0.4953594680486899	0.48293254016910847	0.3678810678548447	0.38987785473773867	0.7502299832152466	0.21879395757582967	0.2990408698373894	0.587034355060752	0.1416506938499808	0.2617493118101178	0.48384024391016084	0.14576650220293721	0.2246493183044229	0.47371776007334343	0.14896593785622653	0.2215771341972591	0.5227567682551435	0.028944261416876733	0.5359644842312488	0.5051098122182577	-0.03888830687985787	0.5807648190989876	0.7648946259258583	0.009484257485929827	0.42068742222386124	0.9426752295122606	0.08485335881111312	0.33927690879344957	1.0107917577926917	0.0695185301693773	0.3476113741438406	1.0480365337043742	0.035165802971836704	0.3561937282862054	1.0859587422710104
134	2.2711864406779663	0.2918624218435407	0.5534110543457718	0.9853055340129354	0.2845869719006233	0.5489583134465924	1.4568100028888695	0.25714012452951523	0.5347363029981766	1.916831950852586	0.218696126008804	0.361811460490931	1.948002867772429	0.28014283690646974	0.40444920982696314	1.971796758941822	0.23343246514102556	0.6139855108742361	1.9924337585185468	0.06761451005908406	0.5489740707886428	0.956839415910666	0.07004807054822014	0.5777110491113462	1.4537590598697685	0.05896709919286839	0.5579266431395472	1.9005255966427292	0.06253701554052882	0.38288844776584885	1.949179203185211	0.01021972544626109	0.43940295654859124	1.972714443141942	0.06534288120391035	0.5854394746802527	1.9450033834478362	0.1918507485375586	0.5068796902598127	0.4308062105776022	0.17795519784189284	0.40501553941366353	0.17524731304525107	0.176184167526475	0.3727211673668082	0.32821679721767244	0.33319343710863475	0.4953519404447141	0.48304793436466353	0.3680139310628753	0.3900972397328518	0.7502579122555897	0.21559583212455133	0.2898866158588897	0.5852751614656755	0.14191633776604715	0.27246116415080773	0.4892588857591688	0.14573400889124868	0.22465273921098547	0.473868119280885	0.1524466240864195	0.220659909679658	0.5273787921016416	0.03201393572150123	0.5466081978432762	0.5067155350816182	-0.03882264915927828	0.5808528901737413	0.7647425445477818	0.009488796765716751	0.4208286634474064	0.9426072495921488	0.08477635962020094	0.3391824305108266	1.0106278550011176	0.06928292729307368	0.34730330698998935	1.0477413331345273	0.03520802662759496	0.3560548458431784	1.085885296379401
